<?xml version="1.0" standalone="no"?>
<!DOCTYPE svg PUBLIC "-//W3C//DTD SVG 20010904//EN"
 "http://www.w3.org/TR/2001/REC-SVG-20010904/DTD/svg10.dtd">
<svg version="1.0" xmlns="http://www.w3.org/2000/svg"
 width="608.000000pt" height="608.000000pt" viewBox="0 0 608.000000 608.000000"
 preserveAspectRatio="xMidYMid meet">
<metadata>
Created by potrace 1.11, written by Peter Selinger 2001-2013
</metadata>
<g transform="translate(0.000000,608.000000) scale(0.100000,-0.100000)"
fill="#000000" stroke="none">
<path d="M3337 5638 c-15 -21 -27 -42 -27 -47 0 -5 -6 -14 -14 -20 -12 -10
-23 -7 -53 12 -21 13 -44 27 -52 32 -9 5 -5 -7 9 -31 13 -21 29 -47 34 -56 8
-14 6 -25 -7 -45 -10 -16 -21 -36 -24 -45 -3 -10 -9 -18 -14 -18 -4 0 -7 -8
-7 -17 1 -10 -17 -47 -39 -83 -22 -36 -48 -92 -57 -125 -10 -33 -21 -67 -24
-75 -3 -8 -6 -22 -8 -30 -2 -8 -15 -44 -29 -79 -14 -36 -25 -70 -25 -75 -1 -6
-9 -29 -20 -51 -11 -22 -19 -44 -20 -49 0 -13 -64 -140 -73 -147 -5 -3 -8 -9
-7 -13 1 -4 -11 -27 -27 -51 -26 -42 -44 -51 -68 -32 -46 34 -115 76 -115 69
0 -5 8 -20 18 -33 10 -13 24 -37 32 -54 8 -16 21 -36 28 -43 6 -7 12 -20 12
-28 0 -13 -93 -161 -110 -174 -3 -3 -16 -21 -28 -42 -12 -20 -29 -39 -37 -42
-8 -3 -15 -14 -15 -25 0 -11 -11 -44 -24 -73 -32 -71 -39 -96 -41 -143 -2 -48
-15 -148 -21 -156 -2 -4 -6 -24 -10 -45 -3 -22 -19 -88 -35 -149 -16 -60 -32
-121 -35 -134 -3 -13 -9 -31 -13 -40 -5 -9 -10 -20 -11 -26 -1 -5 -6 -20 -11
-33 -5 -13 -9 -28 -9 -33 0 -5 -11 -32 -25 -59 -14 -27 -25 -56 -25 -65 0 -8
-4 -15 -9 -15 -5 0 -12 -11 -15 -25 -7 -28 -18 -26 -78 12 -21 13 -40 23 -43
23 -3 0 8 -20 25 -45 26 -37 29 -49 19 -61 -29 -36 -199 -97 -234 -85 -5 2
-48 3 -95 3 -47 -1 -80 2 -75 6 10 7 30 36 41 60 8 16 -5 30 -14 16 -4 -6 -20
-19 -37 -28 -16 -9 -45 -26 -64 -37 l-34 -20 -51 34 c-101 67 -105 69 -99 47
3 -11 9 -20 14 -20 5 0 9 -4 9 -10 0 -5 15 -33 34 -62 l34 -53 -49 -75 c-26
-41 -46 -76 -44 -79 3 -2 16 4 30 13 29 19 33 7 10 -37 -16 -31 -105 -299
-130 -389 -8 -32 -22 -84 -31 -115 -9 -32 -17 -62 -19 -68 -1 -5 -5 -17 -8
-25 -25 -69 -31 -114 -41 -325 -4 -66 -9 -147 -12 -180 -3 -33 -7 -80 -9 -104
-6 -87 -17 -177 -26 -226 -6 -27 -12 -61 -15 -75 -8 -39 -63 -212 -72 -224 -5
-6 -21 -45 -37 -86 -15 -41 -31 -79 -35 -85 -15 -20 -15 -58 0 -66 8 -4 47
-22 85 -40 39 -17 107 -49 152 -71 46 -21 86 -39 90 -39 5 0 15 -6 23 -13 8
-6 26 -17 40 -23 52 -22 505 -248 510 -253 6 -7 60 -32 117 -55 37 -15 65 -16
205 -10 186 8 477 8 718 1 91 -2 188 -1 215 4 28 4 82 11 120 15 39 4 84 8
100 10 89 11 178 20 275 29 36 4 76 8 90 11 24 4 114 12 241 21 221 16 443
117 598 273 135 134 311 330 311 344 0 5 5 5 10 2 6 -3 10 -2 10 4 0 6 45 61
100 123 75 86 98 118 94 133 -7 24 -156 489 -192 600 -15 44 -27 83 -28 88 -1
4 -3 9 -4 12 -1 3 -3 8 -4 13 -3 11 -86 273 -101 317 -8 22 -35 108 -60 190
-26 83 -58 184 -72 226 -13 43 -26 83 -27 90 -1 8 -9 37 -18 64 -16 52 -32
109 -44 160 -4 17 -8 32 -9 35 0 3 -5 23 -10 45 -4 22 -9 45 -11 50 -1 8 -20
105 -39 205 -2 8 -6 38 -9 65 -4 28 -9 57 -11 65 -3 8 -7 40 -9 70 -6 67 -14
140 -22 200 -11 79 -11 85 -13 92 0 3 -81 45 -178 93 -210 102 -275 135 -287
146 -9 8 -34 75 -132 364 -25 72 -47 137 -51 145 -3 8 -7 17 -8 20 -31 115
-219 534 -261 581 -8 8 -14 19 -14 23 0 5 -13 28 -30 53 -16 24 -30 48 -30 52
0 4 -10 19 -22 33 -13 14 -41 52 -63 83 -22 32 -45 63 -50 69 -6 6 -22 27 -35
46 -42 60 -43 60 -73 18z"/>
</g>
</svg>
